<svg xmlns="http://www.w3.org/2000/svg" xmlns:xlink="http://www.w3.org/1999/xlink" width="1080" zoomAndPan="magnify" viewBox="0 0 810 809.999993" height="1080" preserveAspectRatio="xMidYMid meet" version="1.0"><defs><filter x="0%" y="0%" width="100%" height="100%" id="4fe217fc7b"><feColorMatrix values="0 0 0 0 1 0 0 0 0 1 0 0 0 0 1 0 0 0 1 0" color-interpolation-filters="sRGB"/></filter><clipPath id="99550da381"><path d="M 223.117188 755 L 586.867188 755 L 586.867188 809 L 223.117188 809 Z M 223.117188 755 " clip-rule="nonzero"/></clipPath><mask id="a45581f4e0"><g filter="url(#4fe217fc7b)"><rect x="-81" width="972" fill="#000000" y="-80.999999" height="971.999992" fill-opacity="0.07"/></g></mask><clipPath id="8c89d3a006"><rect x="0" width="342" y="0" height="37"/></clipPath><mask id="3f2530ad2b"><g filter="url(#4fe217fc7b)"><rect x="-81" width="972" fill="#000000" y="-80.999999" height="971.999992" fill-opacity="0.07"/></g></mask><clipPath id="4baca954f2"><rect x="0" width="293" y="0" height="71"/></clipPath><mask id="bba258692e"><g filter="url(#4fe217fc7b)"><rect x="-81" width="972" fill="#000000" y="-80.999999" height="971.999992" fill-opacity="0.15"/></g></mask><clipPath id="64bc27bbdb"><path d="M 1 0.359375 L 301.28125 0.359375 L 301.28125 63 L 1 63 Z M 1 0.359375 " clip-rule="nonzero"/></clipPath><clipPath id="14c23cf72a"><rect x="0" width="302" y="0" height="65"/></clipPath><mask id="a1ac9b3673"><g filter="url(#4fe217fc7b)"><rect x="-81" width="972" fill="#000000" y="-80.999999" height="971.999992" fill-opacity="0.07"/></g></mask><clipPath id="b47dfd4a3e"><path d="M 2 0.160156 L 270.679688 0.160156 L 270.679688 46.960938 L 2 46.960938 Z M 2 0.160156 " clip-rule="nonzero"/></clipPath><clipPath id="dbb9b7ed34"><rect x="0" width="271" y="0" height="47"/></clipPath><mask id="b41d3b0b9f"><g filter="url(#4fe217fc7b)"><rect x="-81" width="972" fill="#000000" y="-80.999999" height="971.999992" fill-opacity="0.15"/></g></mask><clipPath id="46d485638e"><rect x="0" width="250" y="0" height="55"/></clipPath><mask id="1eb2a26ff7"><g filter="url(#4fe217fc7b)"><rect x="-81" width="972" fill="#000000" y="-80.999999" height="971.999992" fill-opacity="0.07"/></g></mask><clipPath id="2ec4cd2b2b"><path d="M 1 1 L 157.558594 1 L 157.558594 32 L 1 32 Z M 1 1 " clip-rule="nonzero"/></clipPath><clipPath id="ee65289a7e"><rect x="0" width="158" y="0" height="33"/></clipPath><clipPath id="f12d0f23a1"><path d="M 416 8 L 586.867188 8 L 586.867188 807 L 416 807 Z M 416 8 " clip-rule="nonzero"/></clipPath><mask id="aa7b461d78"><g filter="url(#4fe217fc7b)"><rect x="-81" width="972" fill="#000000" y="-80.999999" height="971.999992" fill-opacity="0.1"/></g></mask><clipPath id="4c78780148"><path d="M 1 1 L 170.867188 1 L 170.867188 797 L 1 797 Z M 1 1 " clip-rule="nonzero"/></clipPath><clipPath id="0d43765db0"><rect x="0" width="171" y="0" height="799"/></clipPath><mask id="865f635162"><g filter="url(#4fe217fc7b)"><rect x="-81" width="972" fill="#000000" y="-80.999999" height="971.999992" fill-opacity="0.25"/></g></mask><clipPath id="b927ebf667"><path d="M 0.238281 1 L 103 1 L 103 135.121094 L 0.238281 135.121094 Z M 0.238281 1 " clip-rule="nonzero"/></clipPath><clipPath id="d1cad027b5"><rect x="0" width="105" y="0" height="136"/></clipPath><mask id="394395f79b"><g filter="url(#4fe217fc7b)"><rect x="-81" width="972" fill="#000000" y="-80.999999" height="971.999992" fill-opacity="0.25"/></g></mask><clipPath id="880a8f3813"><path d="M 1 0.28125 L 65 0.28125 L 65 323 L 1 323 Z M 1 0.28125 " clip-rule="nonzero"/></clipPath><clipPath id="f3ad6f12c4"><rect x="0" width="67" y="0" height="324"/></clipPath><mask id="5b1c0defeb"><g filter="url(#4fe217fc7b)"><rect x="-81" width="972" fill="#000000" y="-80.999999" height="971.999992" fill-opacity="0.25"/></g></mask><clipPath id="0423bd88f1"><path d="M 1 0.160156 L 126 0.160156 L 126 174 L 1 174 Z M 1 0.160156 " clip-rule="nonzero"/></clipPath><clipPath id="f62f7c7b8e"><rect x="0" width="128" y="0" height="176"/></clipPath></defs><g clip-path="url(#99550da381)"><path fill="#da0301" d="M 586.84375 793.398438 C 586.84375 793.398438 586.742188 793.398438 586.707031 793.398438 C 578.53125 798.585938 552.128906 802.457031 516.929688 804.929688 C 456.691406 809.148438 370.351562 809.234375 303.632812 804.464844 C 269.832031 802.042969 241.082031 798.378906 223.308594 793.398438 L 223.152344 793.398438 C 223.429688 786.828125 225.089844 775.347656 234.199219 766.84375 C 234.199219 766.84375 234.546875 766.515625 235.238281 765.976562 C 240.800781 761.695312 247.011719 758.8125 253.875 757.332031 L 254.84375 757.144531 C 264.144531 755.414062 284.527344 754.742188 313.625 755.15625 C 338.332031 755.535156 369.296875 756.660156 405.050781 758.613281 C 421.699219 757.730469 437.3125 757.023438 451.730469 756.46875 C 462.472656 756.054688 472.535156 755.738281 481.917969 755.519531 C 492.671875 755.257812 502.492188 755.121094 511.308594 755.105469 C 533.457031 755.105469 548.929688 755.828125 556.261719 757.402344 C 557.402344 757.644531 558.492188 757.9375 559.546875 758.234375 C 564.449219 759.667969 569.003906 761.84375 573.203125 764.75 C 574.15625 765.402344 575.070312 766.113281 575.9375 766.878906 C 584.910156 775.347656 586.535156 786.828125 586.84375 793.398438 Z M 586.84375 793.398438 " fill-opacity="1" fill-rule="nonzero"/></g><g mask="url(#a45581f4e0)"><g transform="matrix(1, 0, 0, 1, 233, 754)"><g clip-path="url(#8c89d3a006)"><path fill="#131313" d="M 340.066406 10.714844 L 339.804688 10.855469 C 325.378906 18.671875 310.066406 23.886719 293.871094 26.5 C 288.832031 27.320312 283.6875 28.089844 278.429688 28.816406 C 244.015625 33.566406 209.4375 35.75 174.695312 35.371094 C 145.570312 35.046875 116.578125 32.925781 87.71875 29.011719 C 58.855469 25.097656 30.34375 19.421875 2.1875 11.976562 C 7.75 7.695312 13.960938 4.8125 20.824219 3.332031 L 21.792969 3.144531 C 38.996094 -0.125 94.179688 0.464844 171.945312 4.542969 C 188.597656 3.664062 204.207031 2.953125 218.628906 2.398438 C 228.792969 2.191406 238.855469 1.875 248.8125 1.449219 C 259.566406 1.191406 269.386719 1.050781 278.207031 1.035156 C 300.351562 1.035156 315.828125 1.761719 323.15625 3.332031 C 324.296875 3.574219 325.386719 3.871094 326.441406 4.164062 C 331.335938 5.613281 335.878906 7.796875 340.066406 10.714844 Z M 340.066406 10.714844 " fill-opacity="1" fill-rule="nonzero"/></g></g></g><path fill="#da0301" d="M 553.132812 636.121094 L 553.132812 663.246094 C 553.132812 664.109375 553.132812 664.976562 553.132812 665.804688 C 552.25 688.679688 539.386719 702.113281 517.84375 712.121094 L 517.515625 712.277344 C 510.511719 715.429688 503.34375 718.140625 496.007812 720.421875 C 492.125 721.183594 488.234375 721.886719 484.339844 722.53125 C 459.363281 726.792969 434.207031 728.992188 408.871094 729.136719 C 389.269531 729.238281 369.742188 728.050781 350.296875 725.574219 C 339.726562 724.238281 329.179688 722.507812 318.65625 720.386719 L 317.84375 720.164062 C 311.175781 718.332031 304.726562 715.917969 298.5 712.917969 C 279.273438 703.582031 262.726562 688.144531 261.550781 665.769531 C 261.550781 664.921875 261.550781 664.042969 261.550781 663.210938 L 261.550781 636.121094 C 261.554688 633.347656 261.75 630.585938 262.140625 627.839844 C 262.847656 622.976562 264.164062 618.285156 266.082031 613.765625 C 266.824219 612.035156 267.65625 610.308594 268.554688 608.683594 C 269.003906 607.871094 269.46875 607.058594 269.953125 606.261719 L 270.058594 606.105469 C 271.164062 604.308594 272.371094 602.582031 273.671875 600.917969 C 274.085938 600.382812 274.5 599.863281 274.933594 599.347656 C 275.367188 598.828125 275.816406 598.328125 276.265625 597.84375 C 276.921875 597.082031 277.628906 596.355469 278.339844 595.644531 C 280.976562 593.003906 283.851562 590.640625 286.953125 588.5625 C 290.058594 586.484375 293.335938 584.726562 296.785156 583.296875 C 300.234375 581.863281 303.792969 580.78125 307.457031 580.046875 C 311.117188 579.316406 314.816406 578.949219 318.554688 578.945312 L 495.957031 578.945312 C 502.675781 578.949219 509.195312 580.101562 515.511719 582.402344 L 516.253906 582.679688 L 516.824219 582.90625 L 517.136719 583.027344 L 517.742188 583.285156 L 518.484375 583.578125 L 520.003906 584.253906 L 520.664062 584.582031 L 521.234375 584.859375 C 522.011719 585.238281 522.773438 585.636719 523.53125 586.050781 L 524.8125 586.777344 L 526.160156 587.589844 L 527.179688 588.246094 L 527.785156 588.660156 L 528.804688 589.351562 L 529.566406 589.890625 L 530.394531 590.511719 L 531.140625 591.097656 C 531.917969 591.703125 532.695312 592.328125 533.4375 592.984375 L 534.164062 593.640625 C 534.671875 594.078125 535.15625 594.527344 535.617188 594.988281 L 536.328125 595.679688 L 536.585938 595.941406 C 537.433594 596.789062 538.316406 597.667969 539.039062 598.585938 L 539.679688 599.347656 C 540.113281 599.863281 540.527344 600.367188 540.941406 600.902344 C 541.359375 601.4375 542.066406 602.371094 542.671875 603.132812 C 545.027344 606.457031 546.996094 609.996094 548.585938 613.75 C 548.949219 614.578125 549.277344 615.476562 549.585938 616.273438 C 549.898438 617.066406 550.210938 618 550.488281 618.847656 C 550.9375 620.300781 551.332031 621.769531 551.679688 623.273438 C 551.886719 624.171875 552.078125 625.003906 552.234375 625.988281 C 552.335938 626.59375 552.441406 627.214844 552.527344 627.820312 C 552.929688 630.574219 553.132812 633.339844 553.132812 636.121094 Z M 553.132812 636.121094 " fill-opacity="1" fill-rule="nonzero"/><path fill="#da0301" d="M 582.78125 704.101562 L 582.78125 726.058594 C 582.78125 740.582031 574.398438 750.589844 559.40625 758.199219 C 553.101562 761.300781 546.585938 763.859375 539.855469 765.875 C 532.125 768.277344 523.464844 770.4375 513.921875 772.496094 C 510.066406 772.996094 506.226562 773.480469 502.371094 773.929688 L 499.898438 774.207031 C 469.726562 777.671875 439.453125 779.460938 409.078125 779.566406 C 385.484375 779.660156 361.996094 778.695312 338.609375 776.679688 C 330.277344 775.964844 321.964844 775.125 313.679688 774.15625 C 309.285156 773.636719 304.90625 773.0625 300.539062 772.425781 C 292.332031 770.949219 284.265625 768.925781 276.332031 766.359375 C 268.867188 763.984375 261.703125 760.902344 254.84375 757.109375 C 241.253906 749.378906 231.78125 739.09375 231.78125 725.988281 L 231.78125 704.101562 C 231.777344 701.839844 232.019531 699.601562 232.507812 697.390625 C 233.40625 693.296875 234.988281 689.480469 237.242188 685.945312 C 239.769531 682.035156 242.8125 678.574219 246.371094 675.574219 C 250.972656 671.667969 256.015625 668.460938 261.5 665.945312 C 266.636719 663.570312 271.957031 661.726562 277.457031 660.410156 C 285.0625 658.609375 292.773438 657.714844 300.589844 657.730469 L 513.921875 657.730469 C 521.875 657.714844 529.71875 658.640625 537.449219 660.515625 C 542.8125 661.816406 548 663.628906 553.011719 665.945312 C 556.453125 667.542969 559.746094 669.410156 562.882812 671.546875 C 564.6875 672.792969 566.414062 674.132812 568.070312 675.574219 C 571.628906 678.574219 574.671875 682.035156 577.199219 685.945312 C 579.453125 689.480469 581.035156 693.296875 581.933594 697.390625 C 582.453125 699.597656 582.734375 701.835938 582.78125 704.101562 Z M 582.78125 704.101562 " fill-opacity="1" fill-rule="nonzero"/><g mask="url(#3f2530ad2b)"><g transform="matrix(1, 0, 0, 1, 261, 577)"><g clip-path="url(#4baca954f2)"><path fill="#131313" d="M 291.527344 50.839844 C 278.835938 55.472656 261.355469 59.484375 240.523438 62.472656 C 209.253906 66.722656 177.839844 68.765625 146.28125 68.613281 L 142.910156 68.613281 C 121.957031 68.527344 101.953125 67.625 83.554688 66.054688 C 48.738281 63.078125 19.691406 57.683594 1.019531 50.855469 C 1.726562 45.996094 3.042969 41.304688 4.960938 36.78125 C 5.703125 35.054688 6.535156 33.324219 7.433594 31.699219 C 7.882812 30.886719 8.347656 30.074219 8.832031 29.277344 C 9.976562 27.429688 11.214844 25.652344 12.550781 23.9375 C 12.964844 23.402344 13.378906 22.882812 13.8125 22.363281 C 14.246094 21.84375 14.695312 21.34375 15.144531 20.859375 C 15.800781 20.097656 16.507812 19.371094 17.21875 18.664062 C 19.863281 16.011719 22.742188 13.640625 25.855469 11.558594 C 28.96875 9.472656 32.257812 7.714844 35.71875 6.28125 C 39.179688 4.84375 42.746094 3.761719 46.421875 3.035156 C 50.097656 2.304688 53.808594 1.941406 57.554688 1.945312 L 234.957031 1.945312 C 241.675781 1.949219 248.195312 3.101562 254.511719 5.402344 L 255.253906 5.679688 L 255.824219 5.90625 L 256.136719 6.027344 L 256.742188 6.285156 L 257.484375 6.578125 L 259.003906 7.253906 L 259.664062 7.582031 L 260.234375 7.859375 C 261.011719 8.238281 261.773438 8.636719 262.53125 9.050781 L 263.8125 9.777344 L 265.160156 10.589844 L 266.179688 11.246094 L 266.785156 11.660156 L 267.804688 12.351562 L 268.566406 12.890625 L 269.394531 13.511719 L 270.140625 14.097656 C 270.933594 14.703125 271.695312 15.328125 272.4375 15.984375 L 273.164062 16.640625 C 273.667969 17.074219 274.152344 17.539062 274.617188 17.988281 L 275.328125 18.679688 C 276.261719 19.632812 277.160156 20.601562 278.039062 21.585938 L 278.679688 22.347656 C 279.113281 22.863281 279.527344 23.367188 279.925781 23.902344 C 280.324219 24.4375 281.066406 25.371094 281.65625 26.132812 C 284.007812 29.457031 285.980469 32.996094 287.566406 36.75 C 287.929688 37.578125 288.257812 38.476562 288.570312 39.273438 C 288.882812 40.066406 289.191406 41 289.46875 41.847656 C 289.917969 43.300781 290.316406 44.769531 290.660156 46.273438 C 290.871094 47.171875 291.058594 48.003906 291.214844 48.988281 C 291.335938 49.609375 291.441406 50.234375 291.527344 50.839844 Z M 291.527344 50.839844 " fill-opacity="1" fill-rule="nonzero"/></g></g></g><path fill="#da0301" d="M 557.003906 586.949219 C 557.011719 587.078125 557.011719 587.203125 557.003906 587.332031 C 556.726562 592.207031 551.003906 596.820312 541.03125 600.917969 C 530.519531 605.222656 515.285156 608.957031 496.753906 611.8125 C 467.09375 616.089844 437.28125 618.140625 407.316406 617.964844 L 402.300781 617.964844 C 381.105469 617.8125 361.015625 616.757812 342.949219 614.976562 C 312.988281 612.019531 288.523438 607.058594 273.585938 600.9375 C 264.023438 597.011719 258.351562 592.601562 257.660156 587.953125 C 257.636719 587.625 257.636719 587.296875 257.660156 586.96875 C 257.660156 579.566406 270.144531 572.789062 290.996094 567.464844 C 304.953125 564.058594 319.070312 561.574219 333.351562 560.011719 C 350.882812 557.9375 370.628906 556.554688 391.6875 556.125 C 396.875 556.019531 402.058594 555.949219 407.386719 555.949219 C 436.691406 555.789062 465.859375 557.742188 494.886719 561.8125 C 504.617188 563.214844 514.253906 565.117188 523.792969 567.515625 C 544.554688 572.789062 557.003906 579.621094 557.003906 586.949219 Z M 557.003906 586.949219 " fill-opacity="1" fill-rule="nonzero"/><path fill="#da0301" d="M 557.003906 587.332031 L 557.003906 603.234375 C 557.003906 606.917969 554.03125 610.464844 548.585938 613.765625 C 538.089844 620.109375 518.347656 625.539062 492.777344 629.324219 C 464.410156 633.242188 435.914062 635.113281 407.28125 634.945312 L 405.898438 634.945312 C 384.769531 634.945312 364.699219 633.941406 346.511719 632.210938 C 309.027344 628.753906 279.652344 621.976562 265.960938 613.695312 C 260.515625 610.394531 257.558594 606.78125 257.558594 603.167969 C 257.558594 600.039062 257.558594 591.066406 257.558594 587.867188 L 257.558594 586.726562 C 257.558594 584.460938 273.359375 581.296875 296.5625 578.410156 C 308.042969 576.992188 321.320312 575.644531 335.394531 574.5 C 353.582031 573.050781 373.101562 571.960938 391.773438 571.546875 C 396.960938 571.441406 402.144531 571.371094 407.210938 571.371094 C 436.308594 571.34375 465.324219 572.855469 494.261719 575.902344 C 502.664062 576.820312 510.566406 577.839844 517.863281 578.929688 C 531.097656 580.679688 544.117188 583.457031 556.917969 587.261719 Z M 557.003906 587.332031 " fill-opacity="1" fill-rule="nonzero"/><path fill="#da0301" d="M 557.003906 587.332031 L 557.003906 603.234375 C 557.003906 606.917969 554.03125 610.464844 548.585938 613.765625 C 538.089844 620.109375 518.347656 625.539062 492.777344 629.324219 C 464.410156 633.242188 435.914062 635.113281 407.28125 634.945312 L 405.898438 634.945312 C 384.769531 634.945312 364.699219 633.941406 346.511719 632.210938 C 309.027344 628.753906 279.652344 621.976562 265.960938 613.695312 C 260.515625 610.394531 257.558594 606.78125 257.558594 603.167969 C 257.558594 600.039062 257.558594 591.066406 257.558594 587.867188 L 257.558594 586.726562 C 257.558594 584.460938 273.359375 581.296875 296.5625 578.410156 C 308.042969 576.992188 321.320312 575.644531 335.394531 574.5 C 353.582031 573.050781 373.101562 571.960938 391.773438 571.546875 C 396.960938 571.441406 402.144531 571.371094 407.210938 571.371094 C 436.308594 571.34375 465.324219 572.855469 494.261719 575.902344 C 502.664062 576.820312 510.566406 577.839844 517.863281 578.929688 C 531.097656 580.679688 544.117188 583.457031 556.917969 587.261719 Z M 557.003906 587.332031 " fill-opacity="1" fill-rule="nonzero"/><g mask="url(#bba258692e)"><g transform="matrix(1, 0, 0, 1, 256, 555)"><g clip-path="url(#14c23cf72a)"><g clip-path="url(#64bc27bbdb)"><path fill="#131313" d="M 301.003906 31.949219 C 301.011719 32.078125 301.011719 32.203125 301.003906 32.332031 C 300.726562 37.207031 295.003906 41.820312 285.03125 45.917969 C 274.519531 50.222656 259.285156 53.960938 240.753906 56.8125 C 211.09375 61.089844 181.28125 63.140625 151.316406 62.964844 L 146.300781 62.964844 C 125.105469 62.8125 105.015625 61.757812 86.949219 59.976562 C 56.988281 57.019531 32.523438 52.058594 17.585938 45.9375 C 8.023438 42.011719 2.351562 37.601562 1.660156 32.953125 C 1.636719 32.625 1.636719 32.296875 1.660156 31.96875 C 1.660156 24.566406 14.144531 17.789062 34.996094 12.464844 C 48.953125 9.058594 63.070312 6.574219 77.351562 5.011719 C 94.882812 2.9375 114.628906 1.554688 135.6875 1.125 C 140.875 1.019531 146.058594 0.949219 151.386719 0.949219 C 180.691406 0.789062 209.859375 2.746094 238.886719 6.8125 C 248.617188 8.21875 258.253906 10.117188 267.792969 12.515625 C 288.554688 17.789062 301.003906 24.621094 301.003906 31.949219 Z M 301.003906 31.949219 " fill-opacity="1" fill-rule="nonzero"/></g></g></g></g><path fill="#da0301" d="M 527.507812 546.769531 C 527.527344 553.910156 526.289062 560.828125 523.792969 567.515625 C 522.277344 571.578125 520.324219 575.417969 517.929688 579.03125 C 517.171875 580.191406 516.359375 581.3125 515.511719 582.402344 C 512.902344 585.796875 509.921875 588.816406 506.5625 591.46875 C 503.203125 594.121094 499.570312 596.320312 495.664062 598.066406 C 493.851562 598.8125 491.996094 599.417969 490.097656 599.882812 L 488.210938 600.367188 C 480.171875 602.335938 469.9375 603.980469 470.335938 603.980469 C 449.308594 606.902344 428.179688 608.253906 406.953125 608.042969 C 391.996094 607.9375 376.835938 607.144531 361.464844 605.761719 C 357.210938 605.378906 352.949219 604.953125 348.671875 604.480469 L 344.210938 603.980469 C 344.210938 603.980469 323.152344 600.917969 314.472656 595.644531 C 308.648438 592.085938 303.617188 587.632812 299.378906 582.28125 C 298.410156 581.070312 297.496094 579.808594 296.632812 578.511719 C 295.765625 577.214844 295.230469 576.335938 294.589844 575.210938 C 293.171875 572.734375 291.9375 570.171875 290.890625 567.515625 C 290.140625 565.578125 289.5 563.601562 288.964844 561.589844 C 288.429688 559.578125 288.003906 557.546875 287.691406 555.488281 C 287.378906 553.433594 287.175781 551.363281 287.085938 549.285156 C 287 547.207031 287.023438 545.128906 287.160156 543.054688 C 287.300781 540.976562 287.550781 538.914062 287.910156 536.867188 C 288.273438 534.816406 288.746094 532.796875 289.328125 530.796875 C 289.910156 528.800781 290.601562 526.839844 291.394531 524.917969 C 292.191406 522.996094 293.089844 521.121094 294.089844 519.296875 C 299.914062 508.621094 304.683594 497.496094 308.40625 485.921875 C 312.128906 474.34375 314.730469 462.523438 316.21875 450.453125 C 316.21875 450.453125 332.296875 351.316406 330.464844 294.988281 C 330.324219 288.332031 329.75 281.707031 328.738281 275.125 L 328.738281 274.882812 C 328.3125 272.421875 327.734375 269.992188 327.007812 267.605469 L 485.546875 267.605469 C 485.015625 269.308594 484.578125 271.039062 484.234375 272.789062 C 483.015625 279.542969 482.34375 286.347656 482.210938 293.207031 C 480.398438 347.996094 496.960938 447.410156 496.960938 447.410156 C 498.558594 460.027344 501.34375 472.378906 505.304688 484.464844 C 509.269531 496.546875 514.34375 508.148438 520.523438 519.261719 C 522.785156 523.410156 524.511719 527.765625 525.710938 532.332031 C 526.929688 537.070312 527.53125 541.882812 527.507812 546.769531 Z M 527.507812 546.769531 " fill-opacity="1" fill-rule="nonzero"/><path fill="#da0301" d="M 555.15625 224.207031 C 555.046875 225.292969 554.785156 226.339844 554.367188 227.347656 C 553.949219 228.355469 553.394531 229.28125 552.707031 230.125 C 552.015625 230.96875 551.21875 231.695312 550.3125 232.304688 C 549.40625 232.914062 548.433594 233.378906 547.390625 233.699219 C 529.34375 244.625 511.371094 255.699219 493.484375 266.914062 C 490.371094 268.847656 487.277344 270.796875 484.199219 272.757812 L 468.96875 282.4375 L 465.925781 282.4375 L 405 284.148438 L 404.132812 284.148438 C 404.132812 283.960938 404.132812 283.769531 404.132812 283.578125 C 403.875 278.21875 403.597656 272.878906 403.339844 267.535156 C 403.074219 262.566406 402.828125 257.597656 402.597656 252.632812 L 402.128906 243.3125 C 401.886719 238.628906 401.664062 233.925781 401.421875 229.238281 L 400.851562 217.984375 C 400.675781 214.226562 400.492188 210.476562 400.296875 206.730469 L 400.296875 206.523438 L 404.601562 206.625 L 408.90625 206.730469 C 420.351562 207.023438 435.203125 207.457031 451.023438 208.058594 C 457.230469 208.285156 463.574219 208.5625 469.9375 208.855469 C 489.09375 209.738281 508.265625 210.894531 523.410156 212.3125 C 525.96875 212.574219 528.410156 212.832031 530.726562 213.109375 C 534.703125 213.574219 538.261719 214.078125 541.339844 214.597656 C 548.082031 215.753906 552.441406 217.066406 553.441406 218.539062 C 554.609375 220.246094 555.179688 222.136719 555.15625 224.207031 Z M 555.15625 224.207031 " fill-opacity="1" fill-rule="nonzero"/><path fill="#da0301" d="M 408.921875 206.523438 L 408.921875 206.730469 C 408.164062 222.046875 407.394531 237.359375 406.625 252.667969 C 406.105469 263.167969 405.582031 273.660156 405.050781 284.148438 L 404.1875 284.148438 L 340.339844 282.421875 C 332.167969 277.210938 323.972656 272.023438 315.753906 266.859375 C 297.875 255.65625 279.90625 244.585938 261.84375 233.648438 C 260.804688 233.328125 259.828125 232.859375 258.921875 232.253906 C 258.019531 231.644531 257.21875 230.917969 256.527344 230.074219 C 255.835938 229.230469 255.28125 228.304688 254.859375 227.296875 C 254.441406 226.289062 254.175781 225.242188 254.066406 224.15625 C 254.066406 222.113281 254.644531 220.246094 255.792969 218.554688 C 257.003906 216.722656 263.472656 215.097656 273.203125 213.800781 C 303.789062 209.566406 366.722656 207.542969 400.3125 206.675781 L 404.617188 206.574219 Z M 408.921875 206.523438 " fill-opacity="1" fill-rule="nonzero"/><g mask="url(#a1ac9b3673)"><g transform="matrix(1, 0, 0, 1, 271, 206)"><g clip-path="url(#dbb9b7ed34)"><g clip-path="url(#b47dfd4a3e)"><path fill="#131313" d="M 270.359375 8.664062 L 270.359375 9.390625 C 270.359375 13.714844 267.710938 17.878906 262.820312 21.753906 C 253.085938 29.464844 234.464844 36.015625 210.363281 40.460938 C 185.855469 44.746094 161.160156 46.816406 136.28125 46.667969 L 131.597656 46.667969 C 114.960938 46.515625 98.386719 45.425781 81.871094 43.398438 C 48.296875 39.25 21.984375 31.382812 9.726562 21.683594 C 4.851562 17.8125 2.1875 13.644531 2.1875 9.320312 C 2.1875 8.890625 2.1875 8.371094 2.1875 7.78125 C 5.386719 7.332031 8.964844 6.917969 12.820312 6.519531 C 14.929688 6.296875 17.125 6.089844 19.390625 5.898438 C 39.84375 4.046875 66.277344 2.769531 90.136719 1.871094 C 104.851562 1.335938 118.558594 0.9375 129.296875 0.660156 L 129.296875 0.453125 L 133.601562 0.554688 L 137.90625 0.453125 L 137.90625 0.660156 C 149.351562 0.953125 164.203125 1.386719 180.023438 1.992188 C 186.230469 2.214844 192.574219 2.492188 198.9375 2.785156 C 218.09375 3.667969 237.265625 4.828125 252.410156 6.246094 C 254.96875 6.503906 257.410156 6.761719 259.726562 7.039062 C 263.667969 7.644531 267.28125 8.144531 270.359375 8.664062 Z M 270.359375 8.664062 " fill-opacity="1" fill-rule="nonzero"/></g></g></g></g><path fill="#da0301" d="M 530.742188 204.015625 L 530.742188 217.121094 C 530.742188 220.164062 528.304688 223.085938 523.828125 225.765625 C 515.457031 230.8125 500.019531 235.152344 480.015625 238.246094 C 455.902344 241.742188 431.664062 243.417969 407.296875 243.277344 L 402.113281 243.277344 C 386.152344 243.140625 370.992188 242.363281 357.160156 241.046875 C 326.246094 238.125 302.027344 232.59375 290.734375 225.78125 C 286.242188 223.050781 283.820312 220.128906 283.820312 217.136719 C 283.820312 216.152344 283.820312 214.476562 283.820312 212.609375 C 283.820312 209.617188 283.820312 206.175781 283.820312 204.515625 L 283.820312 203.582031 C 283.820312 201.714844 296.855469 199.105469 315.996094 196.667969 C 323.136719 195.785156 331.105469 194.9375 339.59375 194.160156 L 348.015625 193.453125 C 363.003906 192.242188 379.132812 191.34375 394.503906 190.996094 C 398.808594 190.996094 403.0625 190.859375 407.230469 190.859375 C 428.132812 190.859375 448.167969 191.808594 466.011719 193.332031 L 472.929688 193.96875 C 482.125 194.867188 490.699219 195.921875 498.410156 197.082031 C 509.328125 198.550781 520.0625 200.859375 530.621094 203.996094 Z M 530.742188 204.015625 " fill-opacity="1" fill-rule="nonzero"/><path fill="#da0301" d="M 530.742188 203.703125 C 530.75 203.808594 530.75 203.910156 530.742188 204.015625 C 530.585938 206.953125 528.011719 209.773438 523.445312 212.382812 C 521.546875 213.449219 519.585938 214.394531 517.566406 215.21875 C 507.351562 219.402344 491.632812 222.929688 472.617188 225.402344 C 451.109375 228.050781 429.519531 229.34375 407.851562 229.273438 L 401.488281 229.273438 C 384.632812 229.117188 368.640625 228.253906 354.253906 226.835938 C 329.550781 224.382812 309.304688 220.300781 297.0625 215.253906 C 294.78125 214.335938 292.578125 213.25 290.460938 212.003906 C 286.585938 209.652344 284.320312 207.144531 283.921875 204.535156 C 283.90625 204.269531 283.90625 204.003906 283.921875 203.738281 C 283.921875 197.636719 294.296875 192.035156 311.414062 187.640625 C 316.601562 186.3125 322.53125 185.082031 328.960938 183.976562 C 334.390625 183.058594 340.199219 182.246094 346.25 181.503906 C 360.703125 179.777344 376.992188 178.667969 394.347656 178.304688 C 398.601562 178.203125 402.992188 178.167969 407.296875 178.167969 C 428.339844 178.09375 449.3125 179.28125 470.214844 181.730469 C 474.984375 182.316406 479.550781 182.957031 483.871094 183.664062 C 491.0625 184.859375 497.617188 186.191406 503.375 187.675781 C 520.488281 192.035156 530.742188 197.617188 530.742188 203.703125 Z M 530.742188 203.703125 " fill-opacity="1" fill-rule="nonzero"/><g mask="url(#b41d3b0b9f)"><g transform="matrix(1, 0, 0, 1, 282, 176)"><g clip-path="url(#46d485638e)"><path fill="#131313" d="M 248.742188 27.703125 C 248.75 27.808594 248.75 27.910156 248.742188 28.015625 C 248.585938 30.953125 246.011719 33.773438 241.445312 36.382812 C 239.546875 37.449219 237.585938 38.394531 235.566406 39.21875 C 225.351562 43.402344 209.632812 46.929688 190.617188 49.402344 C 169.109375 52.050781 147.519531 53.34375 125.851562 53.273438 L 119.488281 53.273438 C 102.632812 53.117188 86.640625 52.253906 72.253906 50.835938 C 47.550781 48.382812 27.304688 44.300781 15.0625 39.253906 C 12.78125 38.335938 10.578125 37.25 8.460938 36.003906 C 4.585938 33.652344 2.320312 31.144531 1.921875 28.535156 C 1.90625 28.269531 1.90625 28.003906 1.921875 27.738281 C 1.921875 21.636719 12.296875 16.035156 29.414062 11.640625 C 34.601562 10.3125 40.53125 9.082031 46.960938 7.976562 C 52.390625 7.058594 58.199219 6.246094 64.25 5.503906 C 78.703125 3.777344 94.992188 2.667969 112.347656 2.304688 C 116.601562 2.203125 120.992188 2.167969 125.296875 2.167969 C 146.339844 2.09375 167.3125 3.28125 188.214844 5.730469 C 192.984375 6.316406 197.550781 6.957031 201.871094 7.664062 C 209.0625 8.859375 215.617188 10.191406 221.375 11.675781 C 238.488281 16.035156 248.742188 21.617188 248.742188 27.703125 Z M 248.742188 27.703125 " fill-opacity="1" fill-rule="nonzero"/></g></g></g><path fill="#da0301" d="M 510.878906 113.453125 C 510.886719 119.527344 510.371094 125.554688 509.328125 131.539062 C 508.289062 137.523438 506.734375 143.371094 504.671875 149.082031 C 502.609375 154.792969 500.0625 160.285156 497.042969 165.550781 C 494.019531 170.820312 490.5625 175.785156 486.671875 180.449219 C 485.773438 181.523438 484.839844 182.59375 483.890625 183.632812 C 482.003906 185.722656 480.050781 187.726562 477.992188 189.648438 C 476.402344 191.167969 474.761719 192.621094 473.066406 194.023438 L 471.699219 195.144531 C 470.265625 196.285156 468.8125 197.394531 467.324219 198.449219 C 465.839844 199.503906 464.300781 200.574219 462.746094 201.578125 C 458.992188 203.988281 455.105469 206.152344 451.074219 208.058594 L 448.222656 209.355469 C 446.875 209.945312 445.523438 210.5 444.160156 211.085938 C 436.214844 214.179688 428.015625 216.261719 419.554688 217.328125 C 416.511719 217.726562 413.4375 217.96875 410.324219 218.089844 L 406.261719 218.089844 C 404.53125 218.089844 402.683594 218.089844 400.902344 217.949219 C 389.777344 217.371094 379.023438 215.066406 368.640625 211.035156 C 367.066406 210.429688 365.527344 209.789062 363.988281 209.113281 L 361.1875 207.816406 C 355.5625 205.144531 350.226562 201.980469 345.179688 198.328125 C 343.65625 197.238281 342.171875 196.113281 340.71875 194.867188 L 339.679688 194.023438 C 337.726562 192.414062 335.84375 190.753906 334.027344 189.007812 C 332.210938 187.261719 330.570312 185.550781 328.839844 183.820312 C 327.804688 182.679688 326.785156 181.523438 325.78125 180.363281 C 324.027344 178.25 322.359375 176.074219 320.777344 173.828125 C 319.195312 171.585938 317.703125 169.285156 316.300781 166.921875 C 314.902344 164.5625 313.59375 162.148438 312.382812 159.6875 C 311.171875 157.222656 310.058594 154.714844 309.042969 152.164062 C 308.03125 149.613281 307.117188 147.027344 306.304688 144.402344 C 305.496094 141.78125 304.789062 139.132812 304.1875 136.453125 C 303.582031 133.773438 303.085938 131.078125 302.695312 128.359375 C 302.304688 125.640625 302.023438 122.914062 301.847656 120.171875 C 301.671875 117.433594 301.601562 114.691406 301.644531 111.945312 C 301.683594 109.203125 301.832031 106.460938 302.085938 103.730469 C 302.339844 100.996094 302.703125 98.277344 303.171875 95.570312 C 303.640625 92.867188 304.214844 90.183594 304.894531 87.523438 C 305.574219 84.863281 306.359375 82.234375 307.246094 79.636719 C 308.132812 77.039062 309.121094 74.480469 310.207031 71.960938 C 311.296875 69.4375 312.480469 66.964844 313.761719 64.539062 C 315.046875 62.109375 316.421875 59.738281 317.890625 57.417969 C 319.359375 55.097656 320.917969 52.839844 322.5625 50.644531 C 324.210938 48.449219 325.941406 46.320312 327.753906 44.257812 C 329.570312 42.199219 331.460938 40.210938 333.429688 38.300781 C 335.402344 36.386719 337.445312 34.554688 339.558594 32.804688 C 341.671875 31.054688 343.851562 29.386719 346.097656 27.808594 C 348.34375 26.230469 350.644531 24.738281 353.007812 23.339844 C 355.371094 21.941406 357.785156 20.636719 360.25 19.429688 C 362.714844 18.21875 365.222656 17.109375 367.773438 16.097656 C 370.328125 15.085938 372.914062 14.175781 375.539062 13.371094 C 378.160156 12.5625 380.8125 11.855469 383.492188 11.257812 C 386.171875 10.65625 388.871094 10.164062 391.585938 9.777344 C 394.304688 9.390625 397.035156 9.109375 399.773438 8.9375 C 402.511719 8.761719 405.257812 8.699219 408 8.742188 C 410.746094 8.785156 413.484375 8.933594 416.21875 9.191406 C 418.949219 9.449219 421.667969 9.816406 424.375 10.289062 C 427.078125 10.757812 429.761719 11.335938 432.417969 12.019531 C 435.335938 12.78125 438.21875 13.65625 441.0625 14.648438 C 443.597656 15.542969 446.09375 16.535156 448.554688 17.625 C 451.011719 18.710938 453.425781 19.894531 455.792969 21.167969 C 458.160156 22.441406 460.476562 23.804688 462.738281 25.257812 C 465 26.710938 467.203125 28.246094 469.347656 29.867188 C 471.492188 31.492188 473.570312 33.191406 475.582031 34.976562 C 477.59375 36.757812 479.535156 38.613281 481.40625 40.546875 C 483.277344 42.476562 485.070312 44.480469 486.785156 46.550781 C 488.5 48.617188 490.132812 50.75 491.6875 52.949219 C 493.238281 55.144531 494.703125 57.394531 496.078125 59.703125 C 497.457031 62.011719 498.746094 64.371094 499.941406 66.777344 C 501.136719 69.1875 502.238281 71.636719 503.246094 74.128906 C 504.253906 76.621094 505.164062 79.148438 505.976562 81.710938 C 506.789062 84.273438 507.503906 86.863281 508.117188 89.480469 C 508.730469 92.101562 509.242188 94.738281 509.652344 97.394531 C 510.0625 100.050781 510.371094 102.71875 510.574219 105.402344 C 510.777344 108.082031 510.878906 110.765625 510.878906 113.453125 Z M 510.878906 113.453125 " fill-opacity="1" fill-rule="nonzero"/><g mask="url(#1eb2a26ff7)"><g transform="matrix(1, 0, 0, 1, 327, 271)"><g clip-path="url(#ee65289a7e)"><g clip-path="url(#2ec4cd2b2b)"><path fill="#131313" d="M 157.183594 1.773438 C 155.964844 8.527344 155.289062 15.332031 155.160156 22.191406 C 150.144531 23.34375 144.960938 24.417969 139.601562 25.40625 C 127.28125 27.675781 114.878906 29.296875 102.394531 30.265625 C 85.839844 31.507812 69.28125 31.605469 52.710938 30.554688 C 36.144531 29.5 19.730469 27.3125 3.464844 23.988281 C 3.324219 17.332031 2.75 10.707031 1.738281 4.125 L 1.738281 3.882812 C 5.367188 4.765625 10.175781 5.871094 15.171875 6.855469 C 35.667969 10.859375 56.355469 12.792969 77.238281 12.648438 L 78 12.648438 C 98.378906 12.386719 118.550781 10.191406 138.511719 6.0625 C 144.875 4.769531 151.058594 3.328125 157.0625 1.738281 Z M 157.183594 1.773438 " fill-opacity="1" fill-rule="nonzero"/></g></g></g></g><g clip-path="url(#f12d0f23a1)"><g mask="url(#aa7b461d78)"><g transform="matrix(1, 0, 0, 1, 416, 8)"><g clip-path="url(#0d43765db0)"><g clip-path="url(#4c78780148)"><path fill="#131313" d="M 170.84375 785.398438 C 170.84375 785.398438 170.742188 785.398438 170.707031 785.398438 C 162.527344 790.585938 136.128906 794.457031 100.929688 796.929688 C 101.117188 793.046875 100.746094 789.21875 99.808594 785.445312 C 98.875 781.671875 97.414062 778.109375 95.429688 774.765625 C 93.09375 771.128906 90.089844 768.167969 86.421875 765.878906 L 86.164062 765.707031 C 89.800781 759.773438 92.820312 753.546875 95.222656 747.015625 C 97.765625 740.15625 99.585938 733.109375 100.695312 725.878906 C 101.800781 718.644531 102.167969 711.378906 101.792969 704.070312 C 101.792969 702.53125 101.621094 700.976562 101.464844 699.402344 C 99.734375 680.988281 88.132812 666.328125 82.949219 659.136719 C 84.789062 656.152344 86.121094 652.953125 86.941406 649.542969 C 87.585938 646.875 87.859375 644.171875 87.769531 641.433594 C 87.710938 637.941406 86.964844 634.605469 85.523438 631.421875 C 83.496094 627.273438 80.582031 623.890625 76.777344 621.273438 L 76.636719 621.167969 C 78.058594 618.492188 79.113281 615.679688 79.804688 612.730469 C 80.496094 609.777344 80.800781 606.789062 80.71875 603.761719 C 80.703125 602.570312 80.542969 601.398438 80.238281 600.246094 C 79.933594 599.09375 79.492188 598 78.914062 596.957031 C 78.335938 595.917969 77.640625 594.960938 76.824219 594.09375 C 76.007812 593.226562 75.097656 592.472656 74.097656 591.832031 C 75.832031 584.941406 77.140625 577.976562 78.019531 570.929688 L 78.332031 567.953125 C 78.757812 563.238281 78.910156 558.511719 78.78125 553.777344 C 78.433594 542.496094 76.597656 531.457031 73.285156 520.667969 C 70.304688 510.824219 66.269531 501.429688 61.179688 492.488281 C 57.722656 423.332031 54.023438 357.046875 50.53125 288.476562 C 50.304688 283.859375 50.0625 279.226562 49.839844 274.644531 C 49.753906 272.917969 49.667969 271.03125 49.5625 269.234375 L 49.5625 268.941406 C 54.300781 267.902344 58.207031 264.21875 60.921875 259.65625 C 62.375 257.234375 63.5 254.671875 64.296875 251.960938 C 65.089844 249.25 65.527344 246.484375 65.605469 243.664062 C 65.605469 242.195312 65.605469 240.464844 65.347656 238.582031 C 65.085938 235.828125 64.632812 233.105469 63.980469 230.421875 C 62.617188 224.886719 60.265625 219.683594 56.546875 217.523438 L 55.996094 217.226562 C 58.398438 212.042969 56.839844 205.628906 53.9375 200.976562 C 51.757812 197.519531 48.75 194.976562 46.242188 194.683594 C 46.347656 194.476562 46.484375 194.148438 46.691406 193.699219 C 47.367188 192.195312 48.59375 189.394531 50.152344 185.503906 C 51.378906 182.304688 52.796875 178.363281 54.230469 173.816406 C 63.773438 143.542969 74.128906 86.023438 37.890625 36.054688 C 32.898438 29.214844 27.324219 22.886719 21.164062 17.074219 C 15 11.261719 8.359375 6.0625 1.238281 1.476562 C 6.382812 2.015625 11.460938 2.925781 16.472656 4.210938 C 19.386719 4.96875 22.269531 5.847656 25.117188 6.835938 C 27.097656 7.539062 29.054688 8.296875 30.988281 9.113281 C 32.925781 9.929688 34.832031 10.804688 36.714844 11.738281 C 38.597656 12.671875 40.449219 13.660156 42.273438 14.703125 C 44.097656 15.746094 45.886719 16.84375 47.644531 17.996094 C 49.398438 19.148438 51.121094 20.351562 52.804688 21.605469 C 54.488281 22.863281 56.136719 24.167969 57.742188 25.519531 C 59.347656 26.875 60.910156 28.277344 62.433594 29.726562 C 63.953125 31.171875 65.429688 32.667969 66.863281 34.203125 C 68.292969 35.742188 69.675781 37.320312 71.015625 38.941406 C 72.351562 40.5625 73.636719 42.21875 74.875 43.917969 C 76.109375 45.617188 77.296875 47.351562 78.429688 49.121094 C 79.5625 50.890625 80.640625 52.691406 81.664062 54.523438 C 82.6875 56.359375 83.65625 58.222656 84.566406 60.113281 C 85.476562 62.007812 86.332031 63.925781 87.128906 65.871094 C 87.925781 67.8125 88.664062 69.78125 89.339844 71.769531 C 90.019531 73.753906 90.636719 75.761719 91.191406 77.789062 C 91.75 79.8125 92.246094 81.855469 92.679688 83.910156 C 93.113281 85.964844 93.488281 88.03125 93.796875 90.109375 C 94.105469 92.1875 94.355469 94.269531 94.539062 96.363281 C 94.722656 98.457031 94.84375 100.554688 94.902344 102.652344 C 94.960938 104.753906 94.957031 106.851562 94.890625 108.953125 C 94.820312 111.050781 94.691406 113.148438 94.496094 115.238281 C 94.300781 117.332031 94.042969 119.414062 93.726562 121.492188 C 93.40625 123.566406 93.023438 125.632812 92.578125 127.683594 C 92.136719 129.738281 91.632812 131.777344 91.0625 133.800781 C 90.496094 135.820312 89.871094 137.824219 89.183594 139.8125 C 88.496094 141.796875 87.75 143.757812 86.945312 145.699219 C 86.140625 147.640625 85.277344 149.554688 84.355469 151.441406 C 83.4375 153.328125 82.460938 155.1875 81.425781 157.019531 C 80.394531 158.847656 79.308594 160.644531 78.167969 162.410156 C 77.027344 164.171875 75.835938 165.902344 74.589844 167.59375 C 73.34375 169.285156 72.050781 170.9375 70.707031 172.554688 C 69.808594 173.625 68.875 174.699219 67.921875 175.734375 C 75.117188 176.925781 81.667969 178.257812 87.425781 179.746094 C 104.558594 184.136719 114.8125 189.722656 114.8125 195.808594 C 114.820312 195.910156 114.820312 196.015625 114.8125 196.117188 L 114.8125 205.28125 C 118.789062 205.75 122.347656 206.25 125.425781 206.769531 C 132.167969 207.925781 136.527344 209.242188 137.53125 210.710938 C 138.6875 212.398438 139.265625 214.265625 139.257812 216.3125 C 139.148438 217.398438 138.886719 218.445312 138.46875 219.453125 C 138.054688 220.460938 137.5 221.386719 136.808594 222.230469 C 136.117188 223.074219 135.320312 223.800781 134.417969 224.410156 C 133.511719 225.015625 132.539062 225.484375 131.496094 225.804688 C 113.445312 236.730469 95.476562 247.800781 77.589844 259.015625 C 74.476562 260.953125 71.382812 262.898438 68.304688 264.859375 C 67.085938 271.613281 66.410156 278.417969 66.28125 285.277344 C 64.464844 340.066406 81.027344 439.480469 81.027344 439.480469 C 82.628906 452.097656 85.410156 464.449219 89.375 476.53125 C 93.339844 488.617188 98.410156 500.21875 104.59375 511.332031 C 106.855469 515.480469 108.582031 519.835938 109.78125 524.402344 C 111.011719 529.140625 111.625 533.960938 111.613281 538.855469 C 111.628906 545.996094 110.390625 552.914062 107.894531 559.601562 C 128.644531 564.910156 141.109375 571.707031 141.109375 579.070312 C 141.117188 579.199219 141.117188 579.324219 141.109375 579.453125 L 141.109375 595.355469 C 141.109375 599.039062 138.132812 602.585938 132.6875 605.886719 C 133.050781 606.714844 133.378906 607.617188 133.691406 608.410156 C 134.003906 609.207031 134.3125 610.140625 134.589844 610.988281 C 135.039062 612.4375 135.4375 613.910156 135.78125 615.414062 C 135.992188 616.3125 136.179688 617.140625 136.335938 618.128906 C 136.441406 618.730469 136.542969 619.355469 136.628906 619.960938 C 137.035156 622.707031 137.234375 625.464844 137.234375 628.242188 L 137.234375 655.367188 C 137.234375 656.230469 137.234375 657.097656 137.234375 657.925781 C 140.679688 659.523438 143.96875 661.390625 147.109375 663.527344 C 148.910156 664.773438 150.640625 666.117188 152.292969 667.554688 C 155.855469 670.558594 158.898438 674.015625 161.421875 677.929688 C 163.679688 681.464844 165.257812 685.28125 166.160156 689.375 C 166.636719 691.585938 166.878906 693.820312 166.886719 696.082031 L 166.886719 718.058594 C 166.886719 732.582031 158.5 742.589844 143.511719 750.199219 C 148.414062 751.632812 152.96875 753.808594 157.167969 756.714844 C 158.125 757.371094 159.035156 758.078125 159.902344 758.84375 C 168.910156 767.347656 170.535156 778.828125 170.84375 785.398438 Z M 170.84375 785.398438 " fill-opacity="1" fill-rule="nonzero"/></g></g></g></g></g><g mask="url(#865f635162)"><g transform="matrix(1, 0, 0, 1, 306, 78)"><g clip-path="url(#d1cad027b5)"><g clip-path="url(#b927ebf667)"><path fill="#ffffff" d="M 102.75 135.089844 L 99 135.089844 C 97.269531 135.089844 95.644531 135.089844 93.984375 134.953125 C 83.5625 134.445312 73.480469 132.3125 63.746094 128.554688 C 62.277344 128.003906 60.824219 127.398438 59.390625 126.828125 C 58.492188 126.445312 57.660156 126.03125 56.761719 125.617188 C 51.492188 123.105469 46.492188 120.140625 41.753906 116.730469 C 40.320312 115.710938 38.9375 114.636719 37.570312 113.550781 L 36.585938 112.753906 C 34.769531 111.25 33.007812 109.675781 31.296875 108.050781 C 29.582031 106.425781 28.027344 104.835938 26.488281 103.125 C 25.503906 102.050781 24.550781 100.964844 23.617188 99.855469 C 22.226562 98.179688 20.890625 96.460938 19.609375 94.695312 C 18.332031 92.929688 17.113281 91.125 15.953125 89.28125 C 14.792969 87.433594 13.699219 85.550781 12.664062 83.632812 C 11.628906 81.714844 10.660156 79.765625 9.757812 77.78125 C 8.851562 75.796875 8.015625 73.789062 7.246094 71.75 C 6.476562 69.710938 5.773438 67.648438 5.140625 65.5625 C 4.507812 63.476562 3.945312 61.371094 3.453125 59.25 C 2.957031 57.128906 2.535156 54.988281 2.183594 52.839844 C 1.835938 50.6875 1.554688 48.527344 1.347656 46.359375 C 1.140625 44.1875 1.003906 42.015625 0.941406 39.835938 C 0.878906 37.65625 0.890625 35.480469 0.972656 33.300781 C 1.054688 31.125 1.207031 28.953125 1.433594 26.785156 C 1.660156 24.617188 1.960938 22.457031 2.328125 20.3125 C 2.699219 18.164062 3.140625 16.03125 3.652344 13.910156 C 4.164062 11.792969 4.746094 9.695312 5.398438 7.613281 C 6.050781 5.535156 6.769531 3.480469 7.558594 1.445312 C 11.144531 19.355469 17.121094 36.425781 25.484375 52.65625 C 48.082031 96.589844 82.417969 122.332031 102.75 135.089844 Z M 102.75 135.089844 " fill-opacity="1" fill-rule="nonzero"/></g></g></g></g><g mask="url(#394395f79b)"><g transform="matrix(1, 0, 0, 1, 299, 275)"><g clip-path="url(#f3ad6f12c4)"><g clip-path="url(#880a8f3813)"><path fill="#ffffff" d="M 64.660156 316.308594 C 64.351562 318.539062 64.039062 320.765625 63.710938 322.996094 C 60.148438 322.640625 56.558594 322.230469 52.9375 321.769531 L 49.1875 321.304688 C 49.1875 321.304688 31.449219 318.417969 24.152344 313.4375 C 19.160156 309.992188 14.925781 305.785156 11.445312 300.816406 C 10.632812 299.675781 9.855469 298.480469 9.128906 297.253906 C 8.402344 296.027344 7.953125 295.195312 7.398438 294.140625 C 6.191406 291.777344 5.15625 289.339844 4.289062 286.828125 C 2.117188 280.503906 1.039062 273.996094 1.054688 267.308594 C 1.042969 262.816406 1.535156 258.382812 2.539062 254.003906 C 3.539062 249.625 5.019531 245.417969 6.984375 241.375 C 11.925781 231.15625 15.960938 220.589844 19.089844 209.679688 C 22.21875 198.769531 24.394531 187.671875 25.621094 176.386719 C 25.621094 176.386719 39.160156 82.765625 37.605469 29.566406 C 37.476562 23.285156 36.984375 17.03125 36.117188 10.808594 L 36.117188 10.585938 C 35.734375 8.042969 34.300781 2.941406 33.75 0.921875 L 56.640625 5.15625 C 63.398438 87.246094 55.980469 135.585938 47.527344 166.339844 C 44.449219 177.476562 41.855469 203.167969 36.671875 254.515625 C 35.738281 263.78125 34.386719 278.910156 41.855469 293.625 C 43.117188 296.042969 44.558594 298.351562 46.175781 300.546875 C 47.792969 302.746094 49.566406 304.808594 51.503906 306.730469 C 53.4375 308.65625 55.507812 310.421875 57.714844 312.027344 C 59.917969 313.632812 62.234375 315.058594 64.660156 316.308594 Z M 64.660156 316.308594 " fill-opacity="1" fill-rule="nonzero"/></g></g></g></g><g mask="url(#5b1c0defeb)"><g transform="matrix(1, 0, 0, 1, 233, 626)"><g clip-path="url(#f62f7c7b8e)"><g clip-path="url(#0423bd88f1)"><path fill="#ffffff" d="M 109.464844 35.257812 C 108.820312 38.046875 108.621094 40.863281 108.875 43.710938 C 109.171875 47.078125 110.042969 50.289062 111.488281 53.34375 C 102.589844 66.082031 95.882812 79.882812 91.363281 94.75 C 90.914062 96.238281 90.5 97.722656 90.117188 99.226562 C 87.691406 109.429688 86.378906 119.777344 86.175781 130.261719 C 85.984375 136.867188 86.175781 142.691406 86.332031 147.050781 C 84.117188 149.453125 77.308594 155.695312 76.097656 164.199219 C 75.554688 167.5 75.808594 170.738281 76.855469 173.917969 C 45.183594 171.789062 18.246094 168.539062 1.582031 164.113281 L 1.441406 164.113281 C 1.71875 158.304688 3.273438 148.121094 11.816406 140.582031 C 11.816406 140.582031 12.144531 140.289062 12.785156 139.804688 C 18.054688 136 23.875 133.460938 30.246094 132.179688 L 31.164062 132.007812 C 18.421875 125.09375 9.550781 116.03125 9.550781 104.34375 L 9.550781 84.808594 C 9.546875 82.800781 9.773438 80.816406 10.226562 78.863281 C 11.078125 75.203125 12.558594 71.820312 14.667969 68.710938 C 17.054688 65.207031 19.902344 62.121094 23.210938 59.464844 C 27.566406 55.992188 32.296875 53.144531 37.402344 50.921875 C 37.402344 50.179688 37.402344 49.433594 37.402344 48.65625 L 37.402344 24.675781 C 37.402344 22.21875 37.589844 19.777344 37.957031 17.347656 C 38.617188 13.015625 39.851562 8.855469 41.65625 4.863281 C 42.347656 3.324219 43.957031 0.367188 43.957031 0.367188 C 46.429688 3.929688 97.640625 13.820312 125.648438 13.992188 C 123.78125 14.960938 112.335938 23.035156 109.464844 35.257812 Z M 109.464844 35.257812 " fill-opacity="1" fill-rule="nonzero"/></g></g></g></g></svg>