<svg width="20" height="20" viewBox="0 0 20 20" fill="none" xmlns="http://www.w3.org/2000/svg">
<path fill-rule="evenodd" clip-rule="evenodd" d="M16.6673 5.00016H16.667C16.667 5.88141 15.9686 6.73007 14.7144 7.35719C13.4642 7.9823 11.7685 8.3335 10.0003 8.3335C8.23218 8.3335 6.5365 7.9823 5.28628 7.35719C4.04769 6.73789 3.35116 5.90254 3.33398 5.03312V5.00033C3.33398 3.15938 6.31875 1.66699 10.0007 1.66699C13.6824 1.66699 16.6671 3.15929 16.6673 5.00016ZM16.6673 8.08693C16.2891 8.38622 15.8757 8.6399 15.4597 8.8479C13.925 9.61528 11.9604 10.0002 10.0003 10.0002C8.04021 10.0002 6.07569 9.61528 4.54092 8.8479C4.12516 8.64002 3.71199 8.38651 3.33398 8.08744V10.0331C3.35116 10.9025 4.04769 11.7379 5.28628 12.3572C6.5365 12.9823 8.23218 13.3335 10.0003 13.3335C11.7685 13.3335 13.4642 12.9823 14.7144 12.3572C15.9686 11.7301 16.667 10.8814 16.667 10.0002H16.6673V8.08693ZM16.6673 13.0869C16.2891 13.3862 15.8757 13.6399 15.4597 13.8479C13.925 14.6153 11.9604 15.0002 10.0003 15.0002C8.04021 15.0002 6.07569 14.6153 4.54093 13.8479C4.12516 13.64 3.712 13.3865 3.33398 13.0874V15.0003C3.33398 16.8413 6.31875 18.3337 10.0007 18.3337C13.6825 18.3337 16.6673 16.8413 16.6673 15.0003V13.0869Z" fill="url(#paint0_linear_64_553)"/>
<defs>
<linearGradient id="paint0_linear_64_553" x1="10.0007" y1="1.66699" x2="10.0007" y2="18.3337" gradientUnits="userSpaceOnUse">
<stop stop-color="#123745"/>
<stop offset="1" stop-color="#317383"/>
</linearGradient>
</defs>
</svg>
