<svg width="11" height="12" viewBox="0 0 11 12" fill="none" xmlns="http://www.w3.org/2000/svg">
<path d="M0.463525 6.68761C0.00287012 6.53793 0.00287092 5.88623 0.463526 5.73655L3.49139 4.75274C3.6974 4.6858 3.83688 4.49383 3.83688 4.27721L3.83688 1.09353C3.83688 0.609166 4.45669 0.407779 4.74139 0.799635L6.61271 3.37529C6.74004 3.55054 6.96572 3.62386 7.17173 3.55693L10.1996 2.57311C10.6603 2.42344 11.0433 2.95068 10.7586 3.34254L8.88729 5.91819C8.75997 6.09343 8.75997 6.33073 8.88729 6.50598L10.7586 9.08163C11.0433 9.47349 10.6602 10.0007 10.1996 9.85105L7.17173 8.86724C6.96572 8.8003 6.74004 8.87363 6.61271 9.04887L4.74139 11.6245C4.45669 12.0164 3.83688 11.815 3.83688 11.3306L3.83688 8.14695C3.83688 7.93034 3.6974 7.73836 3.49139 7.67142L0.463525 6.68761Z" fill="currentColor"/>
</svg>
