<svg width="20" height="19" viewBox="0 0 20 19" fill="none" xmlns="http://www.w3.org/2000/svg">
<path d="M8.19922 3.88C8.90582 2.11846 9.25912 1.2377 9.83311 1.11563C9.98403 1.08353 10.14 1.08353 10.2909 1.11563C10.8649 1.2377 11.2182 2.11846 11.9248 3.88C12.3267 4.88175 12.5276 5.38263 12.9035 5.72331C13.009 5.81886 13.1234 5.90396 13.2453 5.97742C13.6798 6.23931 14.2222 6.28789 15.3071 6.38505C17.1435 6.54951 18.0618 6.63175 18.3422 7.1553C18.4002 7.26373 18.4397 7.38113 18.459 7.50262C18.5519 8.08921 17.8769 8.70335 16.5268 9.93163L16.1519 10.2727C15.5208 10.847 15.2052 11.1341 15.0226 11.4924C14.9131 11.7073 14.8397 11.9388 14.8053 12.1776C14.748 12.5756 14.8404 12.9921 15.0252 13.8252L15.0912 14.1228C15.4227 15.6168 15.5884 16.3638 15.3815 16.7309C15.1957 17.0607 14.8534 17.2719 14.4753 17.2899C14.0543 17.31 13.4612 16.8267 12.2749 15.86C11.4933 15.2232 11.1025 14.9047 10.6687 14.7803C10.2722 14.6667 9.85182 14.6667 9.45537 14.7803C9.02155 14.9047 8.63076 15.2232 7.84918 15.86C6.66288 16.8267 6.06973 17.31 5.64877 17.2899C5.27065 17.2719 4.92834 17.0607 4.74251 16.7309C4.53563 16.3638 4.70136 15.6168 5.03282 14.1228L5.09886 13.8252C5.28369 12.9921 5.3761 12.5756 5.31875 12.1776C5.28435 11.9388 5.21093 11.7073 5.10143 11.4924C4.91889 11.1341 4.6033 10.847 3.97212 10.2727L3.59721 9.93163C2.24715 8.70335 1.57211 8.08921 1.66508 7.50262C1.68433 7.38113 1.72381 7.26373 1.78189 7.1553C2.06229 6.63175 2.98052 6.54951 4.81697 6.38505C5.90182 6.28789 6.44424 6.23931 6.87875 5.97742C7.00063 5.90396 7.1151 5.81886 7.22054 5.72331C7.59648 5.38263 7.7974 4.88175 8.19922 3.88Z" fill="url(#paint0_linear_505_721)" stroke="url(#paint1_linear_505_721)" stroke-width="2.20098"/>
<defs>
<linearGradient id="paint0_linear_505_721" x1="10.062" y1="1.09155" x2="10.062" y2="17.2905" gradientUnits="userSpaceOnUse">
<stop stop-color="#F9E920"/>
<stop offset="1" stop-color="#FBBF35"/>
</linearGradient>
<linearGradient id="paint1_linear_505_721" x1="10.062" y1="1.09155" x2="10.062" y2="17.2905" gradientUnits="userSpaceOnUse">
<stop stop-color="#F9E920"/>
<stop offset="1" stop-color="#FBBF35"/>
</linearGradient>
</defs>
</svg>
