<svg width="209" height="201" viewBox="0 0 209 201" fill="none" xmlns="http://www.w3.org/2000/svg">
<path d="M200.035 8.04L209 0H16C7.16344 0 0 7.16345 0 16V185C0 193.837 7.16346 201 16 201H200.035L209 192.96L200.035 184.92L209 176.88L200.035 168.84L209 160.8L200.035 152.76L209 144.72L200.035 136.68L209 128.64L200.035 120.6L209 112.56L200.035 104.52L209 96.48L200.035 88.44L209 80.4L200.035 72.36L209 64.32L200.035 56.28L209 48.24L200.035 40.2L209 32.16L200.035 24.12L209 16.08L200.035 8.04Z" fill="white"/>
</svg>
